<?xml version="1.0" encoding="utf-8"?><svg xmlns="http://www.w3.org/2000/svg" xmlns:xlink="http://www.w3.org/1999/xlink"><symbol class="asvg-inline--fa afa-android afa-w-18" viewBox="0 0 576 325.2" id="android" xmlns="http://www.w3.org/2000/svg"><path d="M420.55 301.93a24 24 0 1124-24 24 24 0 01-24 24m-265.1 0a24 24 0 1124-24 24 24 0 01-24 24m273.7-144.48l47.94-83a10 10 0 10-17.27-10l-48.54 84.07a301.25 301.25 0 00-246.56 0l-48.54-84.07a10 10 0 10-17.27 10l47.94 83C64.53 202.22 8.24 285.55 0 384h576c-8.24-98.45-64.54-181.78-146.85-226.55"/></symbol><symbol class="bsvg-inline--fa bfa-apple bfa-w-12" viewBox="0 0 376.4 449.4" id="apple" xmlns="http://www.w3.org/2000/svg"><path d="M318.7 268.7c-.2-36.7 16.4-64.4 50-84.8-18.8-26.9-47.2-41.7-84.7-44.6-35.5-2.8-74.3 20.7-88.5 20.7-15 0-49.4-19.7-76.4-19.7C63.3 141.2 4 184.8 4 273.5q0 39.3 14.4 81.2c12.8 36.7 59 126.7 107.2 125.2 25.2-.6 43-17.9 75.8-17.9 31.8 0 48.3 17.9 76.4 17.9 48.6-.7 90.4-82.5 102.6-119.3-65.2-30.7-61.7-90-61.7-91.9zm-56.6-164.2c27.3-32.4 24.8-61.9 24-72.5-24.1 1.4-52 16.4-67.9 34.9-17.5 19.8-27.8 44.3-25.6 71.9 26.1 2 49.9-11.4 69.5-34.3z"/></symbol><symbol class="csvg-inline--fa cfa-bookmark cfa-w-12" viewBox="0 0 384 512" id="bookmark" xmlns="http://www.w3.org/2000/svg"><path d="M336 0H48C21.49 0 0 21.49 0 48v464l192-112 192 112V48c0-26.51-21.49-48-48-48zm0 428.43l-144-84-144 84V54a6 6 0 016-6h276c3.314 0 6 2.683 6 5.996V428.43z"/></symbol><symbol class="dsvg-inline--fa dfa-code dfa-w-20" viewBox="0 0 642.6 514.7" id="code" xmlns="http://www.w3.org/2000/svg"><path d="M278.9 511.5l-61-17.7c-6.4-1.8-10-8.5-8.2-14.9L346.2 8.7c1.8-6.4 8.5-10 14.9-8.2l61 17.7c6.4 1.8 10 8.5 8.2 14.9L293.8 503.3c-1.9 6.4-8.5 10.1-14.9 8.2zm-114-112.2l43.5-46.4c4.6-4.9 4.3-12.7-.8-17.2L117 256l90.6-79.7c5.1-4.5 5.5-12.3.8-17.2l-43.5-46.4c-4.5-4.8-12.1-5.1-17-.5L3.8 247.2c-5.1 4.7-5.1 12.8 0 17.5l144.1 135.1c4.9 4.6 12.5 4.4 17-.5zm327.2.6l144.1-135.1c5.1-4.7 5.1-12.8 0-17.5L492.1 112.1c-4.8-4.5-12.4-4.3-17 .5L431.6 159c-4.6 4.9-4.3 12.7.8 17.2L523 256l-90.6 79.7c-5.1 4.5-5.5 12.3-.8 17.2l43.5 46.4c4.5 4.9 12.1 5.1 17 .6z"/></symbol><symbol class="esvg-inline--fa efa-envelope efa-w-16" viewBox="0 0 512 384" id="envelope" xmlns="http://www.w3.org/2000/svg"><path d="M464 64H48C21.49 64 0 85.49 0 112v288c0 26.51 21.49 48 48 48h416c26.51 0 48-21.49 48-48V112c0-26.51-21.49-48-48-48zm0 48v40.805c-22.422 18.259-58.168 46.651-134.587 106.49-16.841 13.247-50.201 45.072-73.413 44.701-23.208.375-56.579-31.459-73.413-44.701C106.18 199.465 70.425 171.067 48 152.805V112h416zM48 400V214.398c22.914 18.251 55.409 43.862 104.938 82.646 21.857 17.205 60.134 55.186 103.062 54.955 42.717.231 80.509-37.199 103.053-54.947 49.528-38.783 82.032-64.401 104.947-82.653V400H48z"/></symbol><symbol class="fsvg-inline--fa ffa-folder ffa-w-16" viewBox="0 0 512 384" id="folder" xmlns="http://www.w3.org/2000/svg"><path d="M464 128H272l-54.63-54.63c-6-6-14.14-9.37-22.63-9.37H48C21.49 64 0 85.49 0 112v288c0 26.51 21.49 48 48 48h416c26.51 0 48-21.49 48-48V176c0-26.51-21.49-48-48-48zm0 272H48V112h140.12l54.63 54.63c6 6 14.14 9.37 22.63 9.37H464v224z"/></symbol><symbol class="gsvg-inline--fa gfa-lemon gfa-w-16" viewBox="0 0 594.55 594.21" id="lemon" xmlns="http://www.w3.org/2000/svg"><path d="M484.112 27.889C455.989-.233 416.108-8.057 387.059 8.865 347.604 31.848 223.504-41.111 91.196 91.197-41.277 223.672 31.923 347.472 8.866 387.058c-16.922 29.051-9.1 68.932 19.022 97.054 28.135 28.135 68.011 35.938 97.057 19.021 39.423-22.97 163.557 49.969 295.858-82.329 132.474-132.477 59.273-256.277 82.331-295.861 16.922-29.05 9.1-68.931-19.022-97.054zm-22.405 72.894c-38.8 66.609 45.6 165.635-74.845 286.08-120.44 120.443-219.475 36.048-286.076 74.843-22.679 13.207-64.035-27.241-50.493-50.488 38.8-66.609-45.6-165.635 74.845-286.08C245.573 4.702 344.616 89.086 411.219 50.292c22.73-13.24 64.005 27.288 50.488 50.491zm-169.861 8.736c1.37 10.96-6.404 20.957-17.365 22.327-54.846 6.855-135.779 87.787-142.635 142.635-1.373 10.989-11.399 18.734-22.326 17.365-10.961-1.37-18.735-11.366-17.365-22.326 9.162-73.286 104.167-168.215 177.365-177.365 10.953-1.368 20.956 6.403 22.326 17.364z"/></symbol><symbol class="hsvg-inline--fa hfa-tablet-alt hfa-w-14" viewBox="0 0 448 512" id="tablet" xmlns="http://www.w3.org/2000/svg"><path d="M400 0H48C21.5 0 0 21.5 0 48v416c0 26.5 21.5 48 48 48h352c26.5 0 48-21.5 48-48V48c0-26.5-21.5-48-48-48zM224 480c-17.7 0-32-14.3-32-32s14.3-32 32-32 32 14.3 32 32-14.3 32-32 32zm176-108c0 6.6-5.4 12-12 12H60c-6.6 0-12-5.4-12-12V60c0-6.6 5.4-12 12-12h328c6.6 0 12 5.4 12 12v312z"/></symbol><symbol class="isvg-inline--fa ifa-windows ifa-w-14" viewBox="0 0 448 448" id="windows" xmlns="http://www.w3.org/2000/svg"><path d="M0 93.7l183.6-25.3v177.4H0V93.7zm0 324.6l183.6 25.3V268.4H0v149.9zm203.8 28L448 480V268.4H203.8v177.9zm0-380.6v180.1H448V32L203.8 65.7z"/></symbol></svg>